<?xml version="1.0" encoding="UTF-8" standalone="no"?>
<!-- Generator: Adobe Illustrator 19.2.0, SVG Export Plug-In . SVG Version: 6.00 Build 0)  -->

<svg
   xmlns:dc="http://purl.org/dc/elements/1.1/"
   xmlns:cc="http://creativecommons.org/ns#"
   xmlns:rdf="http://www.w3.org/1999/02/22-rdf-syntax-ns#"
   xmlns:svg="http://www.w3.org/2000/svg"
   xmlns="http://www.w3.org/2000/svg"
   xmlns:sodipodi="http://sodipodi.sourceforge.net/DTD/sodipodi-0.dtd"
   xmlns:inkscape="http://www.inkscape.org/namespaces/inkscape"
   version="1.1"
   id="Capa_1"
   x="0px"
   y="0px"
   viewBox="0 0 587 226"
   xml:space="preserve"
   inkscape:version="0.48.4 r9939"
   width="100%"
   height="100%"
   sodipodi:docname="logo.svg"><metadata
     id="metadata3211"><rdf:RDF><cc:Work
         rdf:about=""><dc:format>image/svg+xml</dc:format><dc:type
           rdf:resource="http://purl.org/dc/dcmitype/StillImage" /></cc:Work></rdf:RDF></metadata><defs
     id="defs3209" /><sodipodi:namedview
     pagecolor="#ffffff"
     bordercolor="#666666"
     borderopacity="1"
     objecttolerance="10"
     gridtolerance="10"
     guidetolerance="10"
     inkscape:pageopacity="0"
     inkscape:pageshadow="2"
     inkscape:window-width="1366"
     inkscape:window-height="744"
     id="namedview3207"
     showgrid="false"
     inkscape:zoom="0.9754902"
     inkscape:cx="396"
     inkscape:cy="214.63957"
     inkscape:window-x="0"
     inkscape:window-y="24"
     inkscape:window-maximized="1"
     inkscape:current-layer="Capa_1" /><style
     type="text/css"
     id="style3127">
	.st0{fill:#ACABAB;}
	.st1{fill:#006160;}
	.st2{fill:#002E42;}
	.st3{fill:#007770;}
	.st4{fill:#009C92;}
	.st5{fill:#00817A;}
	.st6{fill:#005360;}
	.st7{fill:#003F4D;}
	.st8{fill:#00637A;}
	.st9{fill:#003E4F;}
</style><g
     id="g3129"
     transform="translate(-102.51257,-192.25126)"><path
       class="st0"
       d="m 274.7,409.8 c -0.5,0.5 -1.1,1 -1.7,1.5 -0.6,0.4 -1.3,0.8 -2,1.1 -0.7,0.3 -1.5,0.5 -2.4,0.7 -0.9,0.2 -1.8,0.3 -2.8,0.3 -1.7,0 -3.3,-0.3 -4.7,-0.9 -1.4,-0.6 -2.7,-1.5 -3.7,-2.6 -1,-1.1 -1.8,-2.4 -2.4,-4 -0.6,-1.6 -0.9,-3.3 -0.9,-5.2 0,-1.9 0.3,-3.6 0.9,-5.1 0.6,-1.5 1.4,-2.9 2.5,-4 1.1,-1.1 2.3,-2 3.8,-2.6 1.5,-0.6 3.1,-0.9 4.9,-0.9 2.3,0 5,0.6 7.9,1.8 v 5.6 h -0.9 c -0.5,0 -0.7,-0.3 -0.8,-0.8 0,-0.3 -0.1,-1.5 -0.2,-3.8 -1.8,-0.8 -3.9,-1.2 -6.1,-1.2 -1.5,0 -2.9,0.3 -4.2,0.8 -1.3,0.5 -2.3,1.3 -3.3,2.2 -0.9,1 -1.6,2.1 -2.1,3.5 -0.5,1.4 -0.8,2.9 -0.8,4.6 0,1.8 0.3,3.3 0.8,4.7 0.5,1.4 1.2,2.5 2.1,3.5 0.9,1 1.9,1.7 3.1,2.2 1.2,0.5 2.5,0.8 3.9,0.8 0.9,0 1.7,-0.1 2.4,-0.2 0.7,-0.1 1.3,-0.3 1.9,-0.5 0.6,-0.2 1.1,-0.5 1.6,-0.9 0.5,-0.3 1,-0.7 1.5,-1.2 0.1,0 0.1,-0.1 0.2,-0.1 0.1,0 0.1,0 0.2,0 0.1,0 0.2,0 0.3,0.1 l 1,0.6 z"
       id="path3131"
       inkscape:connector-curvature="0"
       style="fill:#acabab" /><path
       class="st0"
       d="m 288.6,396 c 1,0.4 1.8,1 2.5,1.8 0.7,0.8 1.2,1.7 1.5,2.8 0.4,1.1 0.5,2.3 0.5,3.7 0,1.4 -0.2,2.6 -0.5,3.7 -0.4,1.1 -0.9,2 -1.5,2.8 -0.6,0.8 -1.5,1.4 -2.5,1.8 -1,0.4 -2.1,0.6 -3.4,0.6 -1.3,0 -2.4,-0.2 -3.4,-0.6 -1,-0.4 -1.8,-1 -2.5,-1.8 -0.7,-0.8 -1.2,-1.7 -1.6,-2.8 -0.4,-1.1 -0.5,-2.3 -0.5,-3.7 0,-1.4 0.2,-2.6 0.5,-3.7 0.4,-1.1 0.9,-2 1.6,-2.8 0.7,-0.8 1.5,-1.4 2.5,-1.8 1,-0.4 2.1,-0.6 3.4,-0.6 1.3,0 2.4,0.2 3.4,0.6 z m -0.6,15.5 c 0.8,-0.4 1.4,-0.9 1.9,-1.5 0.5,-0.7 0.9,-1.5 1.2,-2.4 0.3,-0.9 0.4,-2 0.4,-3.2 0,-1.2 -0.1,-2.2 -0.4,-3.2 -0.3,-0.9 -0.6,-1.8 -1.2,-2.4 -0.6,-0.6 -1.2,-1.2 -1.9,-1.5 -0.8,-0.4 -1.7,-0.5 -2.7,-0.5 -1,0 -1.9,0.2 -2.7,0.5 -0.8,0.4 -1.4,0.9 -1.9,1.5 -0.5,0.7 -0.9,1.5 -1.2,2.4 -0.3,0.9 -0.4,2 -0.4,3.2 0,1.2 0.1,2.2 0.4,3.2 0.3,0.9 0.7,1.7 1.2,2.4 0.5,0.7 1.2,1.2 1.9,1.5 0.8,0.4 1.7,0.5 2.7,0.5 1,0 1.9,-0.2 2.7,-0.5 z"
       id="path3133"
       inkscape:connector-curvature="0"
       style="fill:#acabab" /><path
       class="st0"
       d="m 315.1,412.4 v 0.7 h -2.5 -1.7 V 402 c 0,-1.6 -0.4,-2.9 -1.1,-3.8 -0.7,-0.9 -1.9,-1.4 -3.4,-1.4 -1.1,0 -2.2,0.3 -3.2,0.9 -1,0.6 -1.9,1.4 -2.6,2.4 v 11.7 c 0.3,0 0.6,0 0.9,0 0.3,0 0.4,0 0.5,0 0.1,0 0.2,0 0.3,0 0.1,0 0.1,0 0.2,0 0.5,0 0.7,0.2 0.7,0.6 v 0.7 h -2.5 -1.7 -2.5 v -0.7 c 0,-0.4 0.2,-0.6 0.7,-0.6 0.1,0 0.1,0 0.2,0 0.1,0 0.3,0 0.6,0 0.3,0 0.6,0 1,0 v -14.7 c -0.3,0 -0.6,0 -0.9,0 -0.3,0 -0.4,0 -0.5,0 -0.1,0 -0.2,0 -0.3,0 -0.1,0 -0.1,0 -0.2,0 -0.5,0 -0.7,-0.2 -0.7,-0.6 v -0.7 h 2.5 l 0.9,0 c 0.3,0 0.5,0.1 0.5,0.4 l 0.2,2.6 c 0.8,-1 1.7,-1.8 2.8,-2.4 1.1,-0.6 2.2,-0.9 3.5,-0.9 1,0 1.8,0.2 2.5,0.5 0.7,0.3 1.3,0.7 1.8,1.3 0.5,0.6 0.8,1.3 1.1,2.1 0.3,0.8 0.4,1.7 0.4,2.7 v 9.8 c 0.3,0 0.6,0 0.9,0 0.3,0 0.4,0 0.5,0 0.1,0 0.2,0 0.3,0 0.1,0 0.1,0 0.2,0 0.4,-0.1 0.6,0.1 0.6,0.5 z"
       id="path3135"
       inkscape:connector-curvature="0"
       style="fill:#acabab" /><path
       class="st0"
       d="m 331.4,410.9 c -0.3,0.4 -0.6,0.7 -1,1 -0.4,0.3 -0.9,0.6 -1.4,0.8 -0.5,0.2 -1.1,0.4 -1.7,0.5 -0.6,0.1 -1.2,0.2 -1.9,0.2 -1.1,0 -2.1,-0.2 -3,-0.6 -0.9,-0.4 -1.7,-1 -2.4,-1.8 -0.7,-0.8 -1.2,-1.7 -1.5,-2.8 -0.3,-1.1 -0.6,-2.4 -0.6,-3.8 0,-1.3 0.2,-2.5 0.5,-3.6 0.4,-1.1 0.9,-2 1.5,-2.8 0.7,-0.8 1.5,-1.4 2.5,-1.8 1,-0.4 2.1,-0.7 3.4,-0.7 0.4,0 1,0.1 1.8,0.3 0.8,0.2 1.5,0.4 2.1,0.5 l 0.9,0.3 v 4.4 h -0.9 c -0.5,0 -0.7,-0.3 -0.8,-0.8 0,0 0,-0.2 0,-0.4 0,-0.2 -0.1,-0.6 -0.1,-1 0,-0.4 -0.1,-0.9 -0.1,-1.3 -1.1,-0.4 -2.1,-0.6 -3,-0.6 -1,0 -1.9,0.2 -2.7,0.5 -0.8,0.4 -1.4,0.9 -2,1.5 -0.5,0.7 -0.9,1.5 -1.2,2.4 -0.3,0.9 -0.4,2 -0.4,3.2 0,1.2 0.1,2.3 0.4,3.3 0.3,0.9 0.7,1.7 1.2,2.4 0.5,0.6 1.2,1.1 1.9,1.5 0.7,0.3 1.6,0.5 2.5,0.5 0.8,0 1.5,-0.1 2.1,-0.3 0.6,-0.2 1,-0.4 1.4,-0.6 0.4,-0.2 0.7,-0.4 0.9,-0.6 0.2,-0.2 0.4,-0.3 0.5,-0.3 0.2,0 0.3,0.1 0.3,0.2 l 0.8,0.3 z"
       id="path3137"
       inkscape:connector-curvature="0"
       style="fill:#acabab" /><path
       class="st0"
       d="m 344.6,395.9 c 0.8,0.3 1.6,0.8 2.2,1.5 0.6,0.7 1.1,1.4 1.4,2.4 0.3,0.9 0.5,2 0.5,3.3 0,0.3 0,0.4 -0.1,0.5 -0.1,0.1 -0.2,0.1 -0.4,0.1 h -12.6 v 0.3 c 0,1.3 0.2,2.5 0.5,3.5 0.3,1 0.7,1.8 1.3,2.5 0.6,0.7 1.2,1.2 2,1.5 0.8,0.3 1.7,0.5 2.7,0.5 0.9,0 1.6,-0.1 2.3,-0.3 0.6,-0.2 1.2,-0.4 1.6,-0.6 0.4,-0.2 0.8,-0.5 1,-0.6 0.3,-0.2 0.4,-0.3 0.6,-0.3 0.2,0 0.3,0.1 0.3,0.2 l 0.5,0.6 c -0.3,0.4 -0.7,0.7 -1.1,1 -0.5,0.3 -1,0.6 -1.5,0.8 -0.5,0.2 -1.2,0.4 -1.8,0.5 -0.6,0.1 -1.3,0.2 -2,0.2 -1.2,0 -2.3,-0.2 -3.3,-0.6 -1,-0.4 -1.8,-1 -2.5,-1.8 -0.7,-0.8 -1.2,-1.8 -1.6,-2.9 -0.4,-1.2 -0.6,-2.5 -0.6,-4 0,-1.2 0.2,-2.4 0.5,-3.5 0.4,-1.1 0.9,-2 1.5,-2.7 0.7,-0.8 1.5,-1.4 2.5,-1.8 1,-0.4 2.1,-0.6 3.3,-0.6 1.1,-0.2 2,0 2.8,0.3 z m -5.1,1.1 c -0.7,0.3 -1.3,0.7 -1.8,1.2 -0.5,0.5 -0.9,1.2 -1.3,1.9 -0.3,0.7 -0.5,1.6 -0.6,2.5 h 11.5 c 0,-0.9 -0.1,-1.8 -0.4,-2.5 -0.3,-0.7 -0.6,-1.4 -1.1,-1.9 -0.5,-0.5 -1,-0.9 -1.7,-1.2 -0.7,-0.3 -1.4,-0.4 -2.2,-0.4 -0.9,0 -1.7,0.2 -2.4,0.4 z"
       id="path3139"
       inkscape:connector-curvature="0"
       style="fill:#acabab" /><path
       class="st0"
       d="m 367.9,404.3 c 0,1.3 -0.2,2.5 -0.5,3.6 -0.3,1.1 -0.8,2.1 -1.5,2.9 -0.6,0.8 -1.4,1.5 -2.4,1.9 -0.9,0.5 -2,0.7 -3.2,0.7 -1.2,0 -2.2,-0.2 -3.1,-0.6 -0.9,-0.4 -1.6,-1.1 -2.2,-1.9 v 7.1 c 0.3,0 0.6,0 0.9,0 0.3,0 0.4,0 0.5,0 0.1,0 0.2,0 0.3,0 0.1,0 0.1,0 0.2,0 0.5,0 0.7,0.2 0.7,0.6 v 0.7 h -2.6 -1.7 -2.5 v -0.7 c 0,-0.4 0.2,-0.6 0.7,-0.6 0.1,0 0.1,0 0.2,0 0.1,0 0.3,0 0.6,0 0.3,0 0.6,0 1,0 v -20.8 c -0.3,0 -0.6,0 -0.9,0 -0.3,0 -0.4,0 -0.5,0 -0.1,0 -0.2,0 -0.3,0 -0.1,0 -0.1,0 -0.2,0 -0.5,0 -0.7,-0.2 -0.7,-0.6 v -0.7 h 2.5 l 0.9,0 c 0.2,0 0.3,0 0.4,0.1 0.1,0.1 0.1,0.2 0.2,0.3 l 0.2,2.7 c 0.8,-1.1 1.7,-1.9 2.7,-2.5 1,-0.6 2.2,-0.9 3.5,-0.9 2.1,0 3.8,0.7 5,2.2 1.2,1.3 1.8,3.5 1.8,6.5 z m -1.7,0 c 0,-2.6 -0.5,-4.5 -1.4,-5.7 -1,-1.2 -2.3,-1.8 -4.1,-1.8 -1.2,0 -2.2,0.3 -3.1,0.9 -0.9,0.6 -1.8,1.4 -2.5,2.5 v 9.1 c 0.7,1 1.4,1.7 2.2,2.1 0.8,0.4 1.7,0.6 2.8,0.6 1,0 1.9,-0.2 2.7,-0.6 0.8,-0.4 1.4,-0.9 1.9,-1.6 0.5,-0.7 0.9,-1.5 1.2,-2.5 0.3,-1 0.3,-1.9 0.3,-3 z"
       id="path3141"
       inkscape:connector-curvature="0"
       style="fill:#acabab" /><path
       class="st0"
       d="m 373.8,412.4 c -0.7,-0.7 -1,-1.7 -1,-3 v -11.9 h -2.5 c -0.1,0 -0.2,0 -0.3,-0.1 -0.1,-0.1 -0.1,-0.2 -0.1,-0.3 v -0.6 l 3,-0.2 0.4,-6.2 c 0,-0.1 0.1,-0.2 0.1,-0.3 0.1,-0.1 0.2,-0.1 0.3,-0.1 h 0.8 v 6.7 h 5.5 v 1.2 h -5.5 v 11.8 c 0,0.5 0.1,0.9 0.2,1.2 0.1,0.3 0.3,0.6 0.5,0.8 0.2,0.2 0.5,0.4 0.8,0.5 0.3,0.1 0.6,0.2 0.9,0.2 0.4,0 0.8,-0.1 1.1,-0.2 0.3,-0.1 0.6,-0.3 0.8,-0.4 0.2,-0.1 0.4,-0.3 0.5,-0.4 0.1,-0.1 0.3,-0.2 0.3,-0.2 0.1,0 0.2,0.1 0.3,0.2 l 0.5,0.7 c -0.4,0.5 -1,0.9 -1.7,1.2 -0.7,0.3 -1.4,0.4 -2.1,0.4 -1.2,0 -2.1,-0.4 -2.8,-1 z"
       id="path3143"
       inkscape:connector-curvature="0"
       style="fill:#acabab" /><path
       class="st0"
       d="m 401.2,412.4 v 0.7 h -2.5 -0.9 c -0.3,0 -0.5,-0.2 -0.5,-0.5 l -0.2,-2.6 c -0.8,1 -1.7,1.8 -2.8,2.4 -1.1,0.6 -2.2,0.9 -3.5,0.9 -1,0 -1.8,-0.2 -2.5,-0.5 -0.7,-0.3 -1.3,-0.7 -1.8,-1.3 -0.5,-0.6 -0.8,-1.3 -1.1,-2.1 -0.2,-0.8 -0.4,-1.7 -0.4,-2.7 v -9.8 c -0.3,0 -0.6,0 -0.9,0 -0.3,0 -0.4,0 -0.5,0 -0.1,0 -0.2,0 -0.3,0 -0.1,0 -0.1,0 -0.2,0 -0.5,0 -0.7,-0.2 -0.7,-0.6 v -0.7 h 2.5 l 1.7,0 v 11.1 c 0,1.6 0.4,2.9 1.1,3.8 0.8,0.9 1.9,1.4 3.4,1.4 1.1,0 2.2,-0.3 3.2,-0.9 1,-0.6 1.9,-1.4 2.7,-2.4 v -11.7 c -0.3,0 -0.6,0 -0.9,0 -0.3,0 -0.4,0 -0.5,0 -0.1,0 -0.2,0 -0.3,0 -0.1,0 -0.1,0 -0.2,0 -0.5,0 -0.7,-0.2 -0.7,-0.6 v -0.7 h 2.5 l 1.7,0 v 16 c 0.3,0 0.6,0 0.9,0 0.3,0 0.4,0 0.5,0 0.1,0 0.2,0 0.3,0 0.1,0 0.1,0 0.2,0 0.5,0.2 0.7,0.4 0.7,0.8 z"
       id="path3145"
       inkscape:connector-curvature="0"
       style="fill:#acabab" /><path
       class="st0"
       d="m 419.2,412.4 v 0.7 h -2.3 -0.6 0 c -0.4,0 -0.6,-0.2 -0.6,-0.5 l -0.2,-2.2 c -0.5,0.5 -1,0.9 -1.4,1.3 -0.5,0.4 -1,0.7 -1.5,0.9 -0.5,0.3 -1.1,0.5 -1.7,0.6 -0.6,0.1 -1.3,0.2 -2,0.2 -0.6,0 -1.2,-0.1 -1.7,-0.3 -0.6,-0.2 -1.1,-0.4 -1.5,-0.8 -0.4,-0.4 -0.8,-0.8 -1,-1.4 -0.3,-0.6 -0.4,-1.2 -0.4,-2 0,-0.7 0.2,-1.4 0.6,-2 0.4,-0.6 1.1,-1.2 2,-1.6 0.9,-0.5 2,-0.8 3.5,-1.1 1.4,-0.3 3.1,-0.4 5.1,-0.5 v -1.8 c 0,-1.6 -0.3,-2.9 -1,-3.7 -0.7,-0.9 -1.7,-1.3 -3.1,-1.3 -0.8,0 -1.6,0.1 -2.1,0.3 -0.6,0.2 -1.1,0.5 -1.5,0.8 -0.4,0.3 -0.7,0.5 -1,0.8 -0.3,0.2 -0.5,0.4 -0.6,0.4 -0.2,0 -0.4,-0.1 -0.5,-0.3 l -0.3,-0.5 c 0.9,-0.9 1.9,-1.6 2.9,-2.1 1,-0.5 2.1,-0.7 3.4,-0.7 0.9,0 1.8,0.1 2.5,0.4 0.7,0.3 1.3,0.7 1.7,1.3 0.5,0.6 0.8,1.2 1,2 0.2,0.8 0.4,1.7 0.4,2.6 v 10 c 0.3,0 0.5,0 0.8,0 0.3,0 0.4,0 0.6,0 0.1,0 0.2,0 0.3,0 -0.1,-0.1 0.2,0.1 0.2,0.5 z m -4,-7.7 c -1.7,0 -3.1,0.2 -4.3,0.4 -1.2,0.2 -2.2,0.5 -3,0.8 -0.8,0.3 -1.3,0.8 -1.7,1.3 -0.4,0.5 -0.6,1 -0.6,1.7 0,0.6 0.1,1.1 0.3,1.5 0.2,0.4 0.4,0.8 0.8,1.1 0.3,0.3 0.7,0.5 1.1,0.6 0.4,0.1 0.9,0.2 1.3,0.2 0.7,0 1.3,-0.1 1.9,-0.2 0.6,-0.1 1.1,-0.4 1.6,-0.6 0.5,-0.3 0.9,-0.6 1.4,-0.9 0.4,-0.4 0.8,-0.8 1.2,-1.2 v -4.7 z"
       id="path3147"
       inkscape:connector-curvature="0"
       style="fill:#acabab" /><path
       class="st0"
       d="m 429.1,412.4 v 0.7 h -2.5 -1.7 -2.5 v -0.7 c 0,-0.4 0.2,-0.6 0.7,-0.6 0.1,0 0.1,0 0.2,0 0.1,0 0.3,0 0.6,0 0.3,0 0.6,0 1,0 V 389 c -0.3,0 -0.6,0 -0.9,0 -0.3,0 -0.4,0 -0.5,0 -0.1,0 -0.2,0 -0.3,0 -0.1,0 -0.1,0 -0.2,0 -0.5,0 -0.7,-0.2 -0.7,-0.6 v -0.7 h 2.5 1.7 v 24.1 c 0.3,0 0.6,0 0.9,0 0.3,0 0.4,0 0.5,0 0.1,0 0.2,0 0.3,0 0.1,0 0.1,0 0.2,0 0.5,0 0.7,0.2 0.7,0.6 z"
       id="path3149"
       inkscape:connector-curvature="0"
       style="fill:#acabab" /><path
       class="st0"
       d="m 452,399.8 c 2.5,1.1 3.8,3 3.8,5.7 0,2.3 -0.7,4.2 -2.2,5.6 -1.6,1.5 -3.6,2.3 -6.2,2.3 -1.1,0 -2.2,-0.1 -3.4,-0.3 -1.2,-0.2 -2.2,-0.5 -2.8,-0.7 l -1,-0.4 v -6.3 h 1.7 c 0.4,0 0.6,0.2 0.7,0.6 0,0.2 0.1,0.7 0.2,1.7 0.1,1 0.1,1.5 0.1,1.5 1.7,0.6 3.2,1 4.3,1 1.1,0 2,-0.1 2.6,-0.3 0.6,-0.2 1.2,-0.5 1.6,-0.9 0.9,-0.8 1.3,-1.9 1.3,-3.3 0,-1.3 -0.6,-2.4 -1.9,-3.1 -0.6,-0.3 -1.2,-0.6 -1.9,-0.8 -2.2,-0.7 -3.7,-1.2 -4.4,-1.5 -0.7,-0.3 -1.4,-0.7 -1.9,-1.2 -1.2,-1.1 -1.9,-2.7 -1.9,-4.7 0,-1.9 0.7,-3.5 2,-4.8 1.4,-1.4 3.3,-2.1 5.6,-2.1 2.3,0 4.6,0.5 7,1.4 v 5.8 h -1.7 c -0.4,0 -0.6,-0.2 -0.7,-0.6 0,-0.1 -0.1,-1.1 -0.3,-3.1 -1.6,-0.4 -2.9,-0.7 -4.1,-0.7 -1.5,0 -2.6,0.4 -3.5,1.1 -0.8,0.7 -1.2,1.6 -1.2,2.8 0,1.2 0.6,2.2 1.9,2.9 0.6,0.3 1.2,0.6 1.9,0.9 2.2,0.6 3.6,1.1 4.4,1.5 l 0,0 z"
       id="path3151"
       inkscape:connector-curvature="0"
       style="fill:#acabab" /><path
       class="st0"
       d="m 461,412.2 c -0.8,-0.8 -1.1,-1.9 -1.1,-3.4 V 398 h -2.1 c -0.2,0 -0.4,-0.1 -0.5,-0.2 -0.1,-0.1 -0.2,-0.3 -0.2,-0.5 V 396 l 2.9,-0.4 0.7,-5.5 c 0,-0.2 0.1,-0.3 0.2,-0.4 0.1,-0.1 0.3,-0.2 0.5,-0.2 h 1.6 v 6.1 h 5.1 v 2.3 H 463 v 10.7 c 0,0.8 0.2,1.3 0.5,1.7 0.4,0.4 0.8,0.5 1.4,0.5 0.3,0 0.6,-0.1 0.9,-0.1 0.2,-0.1 0.5,-0.2 0.6,-0.3 0.2,-0.1 0.3,-0.2 0.5,-0.3 0.1,-0.1 0.2,-0.1 0.3,-0.1 0.2,0 0.3,0.1 0.4,0.3 l 0.9,1.5 c -0.5,0.5 -1.2,0.9 -1.9,1.2 -0.8,0.3 -1.5,0.4 -2.3,0.4 -1.4,0 -2.5,-0.4 -3.3,-1.2 z"
       id="path3153"
       inkscape:connector-curvature="0"
       style="fill:#acabab" /><path
       class="st0"
       d="m 479.3,410.9 c 1.8,0 3.4,-0.8 4.8,-2.5 v -10.5 c -0.2,-0.1 -0.9,-0.2 -2,-0.4 -0.4,-0.1 -0.5,-0.3 -0.5,-0.6 v -1.5 h 2.5 3.1 v 15.2 c 1.1,0.2 1.8,0.4 2,0.4 0.4,0.1 0.5,0.3 0.5,0.6 v 1.5 h -4.4 c -0.4,0 -0.7,-0.2 -0.8,-0.6 l -0.2,-1.9 c -1.7,1.9 -3.7,2.8 -5.9,2.8 -1.9,0 -3.4,-0.6 -4.4,-1.8 -1,-1.2 -1.5,-2.8 -1.5,-4.9 v -8.8 c -1.1,-0.2 -1.8,-0.4 -2,-0.4 -0.3,-0.1 -0.5,-0.3 -0.5,-0.6 v -1.5 h 5.6 v 11.3 c 0,1.3 0.3,2.4 0.9,3.1 0.6,0.7 1.5,1.1 2.8,1.1 l 0,0 z"
       id="path3155"
       inkscape:connector-curvature="0"
       style="fill:#acabab" /><path
       class="st0"
       d="m 499.1,395 c 2,0 3.6,0.7 4.9,2.1 v -7.3 c -1.2,-0.2 -2,-0.3 -2.3,-0.4 -0.4,-0.1 -0.5,-0.3 -0.5,-0.7 v -1.5 h 6 v 23.2 c 1.1,0.2 1.8,0.4 2,0.4 0.4,0.1 0.5,0.3 0.5,0.6 v 1.5 h -4.4 c -0.4,0 -0.7,-0.2 -0.8,-0.6 l -0.3,-2.2 c -1.7,2 -3.6,3 -5.9,3 -2.1,0 -3.7,-0.8 -4.9,-2.3 -1.2,-1.6 -1.8,-3.8 -1.8,-6.7 0,-2.7 0.7,-4.9 2,-6.6 1.3,-1.6 3.1,-2.5 5.5,-2.5 l 0,0 z m 0.1,15.8 c 1.8,0 3.4,-0.9 4.8,-2.7 v -8.6 c -1,-1.4 -2.4,-2.1 -4.1,-2.1 -1.7,0 -3,0.6 -3.9,1.8 -0.9,1.2 -1.3,2.9 -1.3,5 0,3.3 0.9,5.4 2.6,6.1 0.5,0.4 1.1,0.5 1.9,0.5 l 0,0 z"
       id="path3157"
       inkscape:connector-curvature="0"
       style="fill:#acabab" /><path
       class="st0"
       d="m 519.7,411.6 v 1.5 h -8.2 v -1.5 c 0,-0.3 0.2,-0.6 0.5,-0.6 0.3,-0.1 2,-0.4 2,-0.4 V 398 c 0,0 -1.7,-0.3 -2,-0.4 -0.3,-0.1 -0.5,-0.3 -0.5,-0.6 v -1.5 h 5.6 v 15.2 c 0,0 1.7,0.3 2,0.4 0.3,-0.1 0.6,0.2 0.6,0.5 z M 514,391.3 c -0.2,-0.2 -0.4,-0.4 -0.5,-0.7 -0.1,-0.3 -0.2,-0.5 -0.2,-0.8 0,-0.3 0.1,-0.6 0.2,-0.9 0.1,-0.3 0.3,-0.5 0.5,-0.7 0.2,-0.2 0.4,-0.4 0.7,-0.5 0.3,-0.1 0.5,-0.2 0.8,-0.2 0.3,0 0.6,0.1 0.8,0.2 0.3,0.1 0.5,0.3 0.7,0.5 0.2,0.2 0.4,0.5 0.5,0.7 0.1,0.3 0.2,0.6 0.2,0.9 0,0.3 -0.1,0.6 -0.2,0.8 -0.1,0.3 -0.3,0.5 -0.5,0.7 -0.2,0.2 -0.4,0.4 -0.7,0.5 -0.3,0.1 -0.5,0.2 -0.8,0.2 -0.3,0 -0.6,-0.1 -0.8,-0.2 -0.2,-0.1 -0.4,-0.3 -0.7,-0.5 l 0,0 z"
       id="path3159"
       inkscape:connector-curvature="0"
       style="fill:#acabab" /><path
       class="st0"
       d="m 533.3,395.7 c 1.1,0.4 1.9,1.1 2.7,1.8 0.7,0.8 1.3,1.8 1.7,2.9 0.4,1.1 0.6,2.4 0.6,3.8 0,1.4 -0.2,2.7 -0.6,3.8 -0.4,1.1 -0.9,2.1 -1.7,2.9 -0.8,0.8 -1.6,1.4 -2.7,1.8 -1.1,0.4 -2.2,0.6 -3.5,0.6 -1.3,0 -2.5,-0.2 -3.5,-0.6 -1.1,-0.4 -1.9,-1 -2.7,-1.8 -0.8,-0.8 -1.3,-1.8 -1.7,-2.9 -0.4,-1.1 -0.6,-2.4 -0.6,-3.8 0,-1.4 0.2,-2.6 0.6,-3.8 0.4,-1.1 1,-2.1 1.7,-2.9 0.7,-0.8 1.6,-1.4 2.7,-1.8 1.1,-0.4 2.2,-0.6 3.5,-0.6 1.3,0 2.5,0.2 3.5,0.6 z m -3.5,15.2 c 1.8,0 3.1,-0.6 3.9,-1.8 0.8,-1.2 1.3,-2.8 1.3,-4.9 0,-2.1 -0.4,-3.8 -1.3,-4.9 -0.9,-1.1 -2.2,-1.8 -3.9,-1.8 -0.9,0 -1.7,0.2 -2.3,0.5 -0.6,0.3 -1.2,0.7 -1.6,1.3 -0.4,0.6 -0.8,1.3 -1,2.1 -0.2,0.8 -0.3,1.8 -0.3,2.8 0,1.1 0.1,2 0.3,2.8 0.2,0.8 0.5,1.5 1,2.1 0.4,0.6 1,1 1.6,1.3 0.6,0.3 1.4,0.5 2.3,0.5 l 0,0 z"
       id="path3161"
       inkscape:connector-curvature="0"
       style="fill:#acabab" /></g><g
     id="g3163"
     transform="translate(-102.51257,-192.25126)"><path
       class="st0"
       d="M 295.4,255.9 H 306 v 48.8 h 50 v -48.8 h 10.6 V 360.6 H 356 v -45.3 h -50 v 45.3 H 295.4 V 255.9 z"
       id="path3165"
       inkscape:connector-curvature="0"
       style="fill:#acabab" /><path
       class="st0"
       d="m 384.8,308.3 6.8,-5.8 -5,-6.7 c -6.2,-8.4 0,-15.7 5.5,-16.2 9.1,-0.9 15.3,0.2 21,1.6 v 3.9 h -16 c -6.8,0 -9.7,2.3 -4.3,9.6 l 18.5,25.1 9,-9.4 1.8,1.9 -4,8.4 -3.2,3.5 9.2,12.9 h -6.9 l -6.5,-8.8 -5.7,5.3 c -6.4,5.9 -17.5,5 -23.1,-3 -5.9,-7.4 -4,-16.5 2.9,-22.3 z m 16,21.4 6.3,-5.9 -12.3,-16.4 -6.2,5.1 c -6.3,5.2 -5.4,10.4 -1.8,15.1 3.2,4 9.8,6.1 14,2.1 z"
       id="path3167"
       inkscape:connector-curvature="0"
       style="fill:#acabab" /><path
       class="st0"
       d="m 433.4,274.5 c 0,-14 8.4,-19 18,-18.6 l 45.2,2.3 v 8.3 h -45.2 c -7.4,0 -7.4,4.1 -7.4,8 v 28.6 l 46.9,1.4 v 8.4 L 444,314.3 V 343 c 0.1,7.6 4.7,7.4 8.9,7.4 h 43.7 v 8.1 l -43.7,2.4 c -9.4,0.6 -19.4,-1.9 -19.4,-18 v -68.4 z"
       id="path3169"
       inkscape:connector-curvature="0"
       style="fill:#acabab" /></g><g
     id="g3171"
     transform="translate(-102.51257,-192.25126)"><polyline
       class="st1"
       points="103.4,305.2 216.3,305.2 272.7,248.8 216.3,192.4 103.4,305.2  "
       id="polyline3173"
       style="fill:#006160" /><polyline
       class="st2"
       points="272.7,361.7 216.3,305.2 103.4,305.2 216.3,418.1  "
       id="polyline3175"
       style="fill:#002e42" /><polygon
       class="st3"
       points="216.3,192.4 272.7,248.8 180.1,228.6 "
       id="polygon3177"
       style="fill:#007770" /><polygon
       class="st4"
       points="272.7,248.8 230.2,291.3 180.1,228.6 "
       id="polygon3179"
       style="fill:#009c92" /><polygon
       class="st5"
       points="180.1,228.6 230.2,291.3 216.3,305.2 136,272.7 "
       id="polygon3181"
       style="fill:#00817a" /><polygon
       class="st6"
       points="216.3,305.2 229.6,318.6 148.3,350.1 103.4,305.2 "
       id="polygon3183"
       style="fill:#005360" /><polygon
       class="st8"
       points="148.3,350.1 260.1,349 229.6,318.6 "
       id="polygon3185"
       style="fill:#00637a" /><polygon
       class="st9"
       points="148.3,350.1 260.1,349 272.7,361.7 196.4,398.3 "
       id="polygon3187"
       style="fill:#003e4f" /></g><g
     id="g3189"
     transform="translate(-102.51257,-192.25126)"><polyline
       class="st1"
       points="688.6,305.2 575.7,305.2 519.3,248.8 575.7,192.4 688.6,305.2  "
       id="polyline3191"
       style="fill:#006160" /><polyline
       class="st2"
       points="519.3,361.7 575.7,305.2 688.6,305.2 575.7,418.1  "
       id="polyline3193"
       style="fill:#002e42" /><polygon
       class="st3"
       points="575.7,192.4 519.3,248.8 611.9,228.6 "
       id="polygon3195"
       style="fill:#007770" /><polygon
       class="st4"
       points="519.3,248.8 561.8,291.3 611.9,228.6 "
       id="polygon3197"
       style="fill:#009c92" /><polygon
       class="st5"
       points="611.9,228.6 561.8,291.3 575.7,305.2 656,272.7 "
       id="polygon3199"
       style="fill:#00817a" /><polygon
       class="st6"
       points="575.7,305.2 562.4,318.6 643.7,350.1 688.6,305.2 "
       id="polygon3201"
       style="fill:#005360" /><polygon
       class="st8"
       points="643.7,350.1 531.9,349 562.4,318.6 "
       id="polygon3203"
       style="fill:#00637a" /><polygon
       class="st9"
       points="643.7,350.1 531.9,349 519.3,361.7 595.6,398.3 "
       id="polygon3205"
       style="fill:#003e4f" /></g></svg>